<?xml version="1.0" encoding="utf-8"?><!-- Uploaded to: SVG Repo, www.svgrepo.com, Generator: SVG Repo Mixer Tools -->
<svg width="800px" height="800px" viewBox="0 0 24 24" fill="none" xmlns="http://www.w3.org/2000/svg">
<path fill-rule="evenodd" clip-rule="evenodd" d="M21.1155 9.75022L18.1609 11.2125L21.1155 12.6748L18.0847 14.1748L21.1155 15.6748L12 20.1863L2.88458 15.6748L5.91535 14.1748L2.88458 12.6748L5.8392 11.2125L2.88458 9.75022L12 5.23877L21.1155 9.75022ZM7.60618 15.0117L6.26623 15.6748L12 18.5126L17.7338 15.6748L16.3939 15.0117L12 17.1863L7.60618 15.0117ZM12 14.2617L16.47 12.0494L17.7338 12.6748L12 15.5126L6.26623 12.6748L7.53002 12.0494L12 14.2617ZM12 6.91243L6.26623 9.75022L12 12.588L17.7338 9.75022L12 6.91243Z" fill="#080341"/>
</svg>