<svg class="" xmlns="http://www.w3.org/2000/svg" xmlns:xlink="http://www.w3.org/1999/xlink" aria-hidden="true" fill="currentColor" focusable="false" role="img" width="1em" height="1em" preserveAspectRatio="xMidYMid meet" viewBox="0 0 32 32">
    <path fill="currentColor" d="M19 14a3 3 0 1 0-3-3A3 3 0 0 0 19 14Zm0-4a1 1 0 1 1-1 1A1 1 0 0 1 19 10Z"></path>
    <path fill="currentColor" d="M26 4H6a2 2 0 0 0-2 2v20a2 2 0 0 0 2 2h20a2 2 0 0 0 2-2V6a2 2 0 0 0-2-2Zm0 22H6v-6l5-5l5.59 5.59a2 2 0 0 0 2.828 0L21 19l5 5Zm0-4.83l-3.59-3.59a2 2 0 0 0-2.82 0L18 19.17l-5.59-5.59a2 2 0 0 0-2.82 0L6 17.17V6h20Z"></path>
</svg>
